<?xml version="1.0" standalone="no"?>
<!DOCTYPE svg PUBLIC "-//W3C//DTD SVG 20010904//EN"
 "http://www.w3.org/TR/2001/REC-SVG-20010904/DTD/svg10.dtd">
<svg version="1.0" xmlns="http://www.w3.org/2000/svg"
 width="500.000000pt" height="500.000000pt" viewBox="0 0 500.000000 500.000000"
 preserveAspectRatio="xMidYMid meet">
<metadata>
Created by potrace 1.11, written by Peter Selinger 2001-2013
</metadata>
<g transform="translate(0.000000,500.000000) scale(0.100000,-0.100000)"
fill="#000000" stroke="none">
<path d="M9 3177 c-1 -1 -3 -23 -4 -49 -2 -31 1 -48 8 -48 7 0 5 -5 -3 -10
-13 -9 -13 -11 0 -20 10 -6 11 -10 3 -10 -7 0 -13 -5 -13 -11 0 -5 6 -7 13 -3
9 5 9 4 0 -6 -10 -11 -10 -17 0 -29 9 -12 9 -13 -1 -7 -7 4 -12 1 -12 -9 0 -9
4 -14 9 -10 5 3 13 0 17 -6 4 -7 3 -9 -4 -5 -6 3 -14 1 -18 -5 -3 -6 0 -15 7
-20 10 -6 10 -9 2 -9 -15 0 -13 -50 2 -50 5 0 5 -4 -2 -8 -18 -11 -12 -52 7
-52 9 0 22 -6 29 -12 8 -8 11 -8 8 -2 -9 15 55 14 65 -1 5 -6 8 -2 8 9 0 15 3
16 14 7 11 -9 25 -10 50 -3 30 9 34 8 28 -6 -5 -15 -4 -15 12 -3 15 13 19 13
27 0 7 -11 9 -11 9 4 0 12 4 16 12 10 18 -11 52 -10 60 2 5 6 8 5 8 -3 0 -9 5
-10 19 -2 14 7 22 7 27 -2 5 -7 3 -8 -6 -3 -9 5 -11 4 -6 -4 6 -9 11 -9 21 -1
10 9 12 2 9 -32 -3 -31 -1 -39 6 -28 6 9 10 10 10 3 0 -6 -4 -14 -9 -18 -5 -3
-8 -17 -5 -31 3 -16 1 -23 -6 -19 -6 3 -7 0 -4 -9 3 -9 11 -13 18 -9 6 4 5 -1
-3 -10 -11 -14 -11 -17 0 -18 8 0 5 -4 -6 -9 -11 -5 -15 -9 -9 -9 12 -1 13
-39 1 -58 -4 -6 -3 -14 2 -17 5 -3 7 -16 4 -29 -4 -18 -3 -19 6 -7 6 8 11 10
11 4 0 -6 -3 -14 -7 -18 -11 -10 -12 -65 -2 -71 12 -8 11 -25 -2 -25 -5 0 -7
5 -3 12 4 7 3 8 -5 4 -6 -4 -8 -13 -4 -19 10 -17 11 -60 1 -74 -5 -6 -5 -14 1
-17 6 -4 8 -13 5 -20 -3 -8 -1 -17 5 -21 14 -8 14 -25 0 -25 -5 0 -7 5 -3 12
4 7 3 8 -5 4 -6 -4 -8 -13 -4 -19 10 -17 11 -60 1 -74 -5 -6 -5 -14 2 -18 6
-3 8 -11 5 -16 -4 -5 -1 -9 5 -9 6 0 8 -5 5 -10 -4 -6 -11 -7 -17 -4 -6 4 -6
-2 1 -15 7 -11 9 -21 5 -21 -3 0 0 -8 7 -17 8 -9 9 -14 3 -10 -7 4 -10 -13
-11 -49 0 -34 3 -50 8 -42 6 9 9 9 9 1 0 -6 -4 -14 -9 -17 -5 -4 -8 -14 -6
-24 1 -9 -2 -23 -8 -30 -7 -9 -6 -11 7 -6 12 5 15 2 10 -10 -3 -9 -11 -13 -17
-9 -6 4 -7 1 -1 -8 5 -8 7 -23 6 -34 -2 -17 -1 -17 7 -5 7 9 11 10 11 3 0 -6
-4 -15 -10 -18 -17 -10 -12 -38 6 -31 8 3 12 2 9 -4 -3 -6 3 -10 15 -10 13 0
19 4 14 12 -5 7 -3 8 7 3 7 -5 61 -9 119 -9 58 -1 111 -5 119 -10 9 -6 12 -5
8 0 -3 6 16 10 45 11 31 0 45 -3 36 -8 -9 -6 -9 -9 -1 -9 6 0 15 5 19 11 4 8
9 7 15 -2 6 -10 9 -11 9 -1 0 6 7 12 15 12 13 0 14 4 4 21 -8 15 -8 19 0 15 6
-4 11 0 11 8 0 9 -5 16 -11 16 -8 0 -8 4 0 14 8 10 9 16 2 21 -14 8 -8 45 10
56 11 7 10 9 -5 9 -15 0 -16 3 -6 15 7 9 10 18 6 22 -3 3 -6 0 -6 -7 0 -7 -3
-10 -6 -7 -4 4 -1 13 6 22 8 10 9 15 1 15 -6 0 -11 5 -11 11 0 5 5 7 12 3 7
-4 8 -3 4 5 -4 6 -2 19 6 28 8 10 8 14 1 10 -6 -4 -14 -3 -17 2 -4 5 -2 12 4
16 7 4 7 12 0 25 -8 15 -6 21 7 29 17 10 17 10 -1 11 -15 0 -16 3 -6 15 7 9
10 18 6 22 -3 3 -6 0 -6 -7 0 -7 -3 -10 -7 -7 -3 4 2 16 12 27 17 18 17 20 1
26 -14 5 -15 9 -4 15 10 7 10 9 1 9 -7 0 -13 5 -13 11 0 5 5 7 12 3 7 -4 8 -3
4 5 -4 6 -2 19 5 27 7 8 8 14 3 13 -21 -4 -26 2 -13 18 12 15 12 16 -1 8 -13
-7 -13 -6 -2 7 9 11 9 18 3 23 -14 8 -8 45 10 56 11 7 10 9 -5 9 -15 0 -16 3
-6 15 7 9 10 18 6 22 -3 3 -6 0 -6 -7 0 -7 -3 -10 -6 -7 -4 4 -1 13 6 22 8 10
9 15 1 15 -6 0 -11 5 -11 11 0 5 5 7 12 3 7 -4 8 -3 4 5 -4 6 -2 19 6 28 8 10
8 14 1 10 -6 -4 -14 -3 -17 2 -4 5 -2 12 4 16 7 4 7 12 0 25 -8 15 -6 21 7 29
17 10 17 10 -1 11 -15 0 -16 3 -6 15 7 9 10 18 6 22 -3 3 -6 0 -6 -7 0 -7 -3
-10 -7 -7 -3 4 2 16 12 27 17 18 17 20 1 26 -14 5 -15 9 -4 15 10 7 10 9 1 9
-7 0 -13 5 -13 11 0 5 5 7 12 3 7 -4 8 -3 4 5 -4 6 -2 19 6 28 8 10 8 14 1 10
-6 -4 -14 -3 -18 3 -3 5 0 10 7 10 10 0 9 3 -1 9 -12 8 -13 12 -1 26 10 13 15
13 21 3 7 -10 9 -8 9 5 0 11 4 15 12 11 17 -11 67 -13 99 -4 23 7 27 6 21 -8
-5 -15 -4 -15 12 -3 15 13 19 13 27 0 7 -11 9 -10 9 5 0 15 3 17 12 8 8 -8 16
-8 32 0 19 10 20 10 7 -6 -13 -16 -12 -16 13 -5 19 9 30 9 38 1 7 -7 19 -7 36
-1 15 6 37 7 50 4 23 -6 23 -5 8 10 -14 15 -14 35 0 35 3 0 2 -4 -1 -10 -3 -6
1 -7 10 -3 12 4 13 8 5 13 -7 4 -10 12 -6 18 3 6 1 14 -5 18 -8 5 -9 3 -4 -6
5 -9 4 -11 -4 -6 -8 5 -9 12 -2 20 11 13 10 34 -2 53 -4 6 -2 15 4 19 8 5 9 3
4 -6 -5 -8 -4 -11 2 -7 6 4 8 18 5 33 -3 19 -7 22 -13 12 -6 -9 -9 -9 -9 -1 0
6 4 15 10 18 10 6 9 33 -3 52 -4 6 -2 15 4 19 8 5 9 3 4 -6 -5 -8 -4 -11 3 -6
7 4 8 17 2 35 -4 16 -6 32 -2 35 3 3 0 6 -6 6 -7 0 -12 7 -12 15 0 12 -14 15
-66 15 -47 0 -63 -3 -58 -12 5 -7 3 -8 -7 -2 -23 14 -141 15 -133 1 5 -8 3 -8
-7 1 -17 16 -63 16 -53 0 5 -7 3 -8 -7 -2 -8 4 -74 10 -147 11 -105 2 -132 0
-126 -9 6 -10 4 -10 -7 -2 -20 16 -163 19 -153 3 5 -8 3 -9 -7 -3 -23 14 -141
15 -133 1 5 -8 3 -8 -7 1 -17 16 -63 16 -53 0 5 -7 3 -8 -7 -2 -11 7 -265 17
-270 11z"/>
<path d="M1334 3149 c1 -16 -3 -29 -8 -30 -6 0 -2 -4 9 -9 11 -5 14 -9 8 -9
-15 -1 -13 -51 2 -51 5 0 4 -4 -4 -9 -8 -5 -11 -16 -8 -24 3 -8 0 -20 -6 -27
-9 -9 -9 -11 -1 -7 15 9 27 -20 12 -29 -7 -5 -8 -2 -3 6 6 9 4 11 -4 5 -9 -5
-10 -10 -2 -18 14 -14 14 -30 1 -22 -11 7 -2 -23 12 -41 5 -7 2 -16 -7 -24
-12 -10 -13 -16 -4 -26 6 -8 8 -14 3 -14 -5 0 -2 -5 6 -10 12 -7 12 -10 1 -10
-9 0 -11 -8 -7 -26 5 -18 3 -24 -5 -19 -8 5 -8 2 -1 -11 10 -20 9 -65 -3 -83
-4 -7 1 -8 12 -4 16 6 16 5 4 -10 -7 -9 -10 -17 -6 -17 4 0 2 -6 -4 -14 -8
-10 -9 -16 -1 -21 6 -3 8 -11 5 -16 -4 -5 0 -9 7 -9 10 0 10 -2 -1 -9 -8 -5
-11 -16 -8 -24 3 -8 0 -20 -6 -27 -9 -9 -9 -11 -1 -7 15 9 27 -20 12 -29 -7
-5 -8 -2 -3 6 6 9 4 11 -4 5 -9 -5 -10 -10 -2 -18 15 -15 14 -30 -1 -21 -10 6
-10 4 0 -8 9 -12 10 -18 2 -23 -8 -5 -6 -14 7 -28 10 -11 12 -17 4 -12 -10 6
-12 -1 -7 -34 4 -29 2 -41 -7 -41 -8 0 -8 -3 -2 -8 12 -8 13 -27 2 -38 -4 -4
1 -16 10 -27 10 -11 12 -17 4 -12 -10 6 -12 -1 -7 -34 4 -29 2 -41 -7 -41 -8
0 -8 -3 -2 -8 12 -8 13 -27 2 -38 -4 -4 1 -16 10 -27 10 -11 12 -17 4 -12 -10
6 -12 -1 -7 -34 4 -29 2 -41 -7 -41 -8 0 -8 -3 -2 -8 12 -8 13 -27 2 -38 -4
-4 1 -16 10 -27 10 -11 12 -17 4 -12 -10 6 -12 -1 -7 -34 4 -32 3 -40 -7 -35
-9 6 -9 4 -1 -7 5 -8 9 -25 8 -39 -1 -14 2 -27 7 -30 4 -3 77 -5 161 -4 97 0
158 -3 167 -10 10 -7 13 -7 9 0 -11 18 215 12 238 -6 17 -13 18 -13 7 1 -11
14 16 15 265 15 152 -1 282 -4 289 -9 6 -4 14 -3 18 3 3 5 14 10 23 10 15 0
15 -2 2 -10 -8 -5 -10 -10 -4 -10 6 0 19 9 29 20 10 11 15 20 10 20 -4 0 -1 8
6 17 10 11 10 14 2 9 -8 -4 -13 -1 -13 8 0 9 6 16 13 16 9 0 9 2 -1 8 -8 5
-10 16 -6 27 5 12 4 16 -3 12 -7 -5 -9 0 -6 13 3 11 10 17 17 13 6 -4 6 -1 -2
9 -7 9 -10 31 -8 52 3 22 1 34 -4 31 -6 -4 -7 3 -2 17 4 13 7 41 7 62 0 31 -5
41 -23 47 -15 6 -21 5 -17 -1 4 -6 -2 -7 -17 -1 -17 6 -26 4 -35 -8 -11 -14
-12 -12 -8 9 4 23 3 24 -9 7 -11 -14 -15 -15 -19 -5 -4 9 -6 9 -6 1 -1 -14
-49 -8 -68 9 -10 8 -12 7 -8 -5 4 -8 1 -18 -6 -23 -7 -4 -10 -3 -5 4 3 6 2 13
-4 17 -5 3 -10 1 -10 -6 0 -7 -7 -4 -15 7 -14 18 -15 18 -9 0 6 -16 4 -17 -14
-7 -17 9 -22 9 -22 -1 0 -9 -3 -9 -10 2 -9 13 -10 13 -10 0 0 -13 -1 -13 -10
0 -6 9 -10 10 -10 3 0 -15 -52 -7 -62 10 -5 8 -8 7 -8 -5 0 -9 -5 -20 -12 -24
-6 -4 -8 -3 -4 4 3 6 2 13 -4 17 -5 3 -10 1 -10 -6 0 -7 -7 -4 -15 7 -11 14
-14 15 -9 2 4 -12 1 -16 -13 -13 -10 2 -24 4 -31 4 -7 1 -10 7 -7 14 4 6 -3 1
-15 -13 -12 -14 -19 -20 -16 -13 4 6 2 14 -4 18 -5 3 -10 1 -10 -6 0 -7 -7 -4
-15 7 -9 11 -13 13 -10 4 4 -13 -9 -15 -80 -15 -47 0 -85 4 -85 9 0 5 -3 6 -6
3 -4 -4 -15 3 -25 15 -22 25 -25 35 -6 19 11 -8 13 -6 12 10 -1 11 -8 25 -16
31 -11 8 -11 9 4 4 9 -3 17 -1 17 4 0 6 -5 10 -11 10 -8 0 -8 5 1 15 7 8 8 15
3 15 -5 0 -10 7 -10 15 0 8 4 15 9 15 5 0 6 5 3 10 -6 10 9 15 30 10 33 -7
145 -3 145 5 0 7 3 7 8 0 4 -5 21 -10 37 -10 17 0 33 5 37 10 5 7 8 7 8 0 0
-5 18 -10 40 -10 22 0 40 3 40 7 0 4 7 5 15 2 8 -4 12 -11 9 -18 -3 -6 1 -3 9
6 8 10 17 15 21 11 10 -10 60 -10 67 0 3 5 13 1 23 -8 15 -15 16 -15 16 0 0
10 5 13 12 9 16 -10 68 -11 68 -1 0 5 6 5 12 0 18 -11 52 -10 60 2 5 6 8 6 8
-1 0 -7 11 -9 26 -6 16 3 30 -1 35 -9 7 -12 9 -12 9 0 0 8 6 11 16 7 8 -3 12
-2 9 4 -3 6 -1 10 5 10 6 0 8 5 5 10 -4 6 -2 17 5 25 8 10 8 15 -1 21 -8 5 -9
3 -4 -6 5 -9 4 -11 -3 -6 -8 4 -9 14 -4 24 4 9 7 34 5 55 -1 27 1 36 10 30 9
-5 9 -3 1 8 -7 8 -12 28 -12 44 0 17 5 36 12 44 8 12 8 13 -2 7 -9 -6 -12 -1
-10 16 2 12 7 28 11 35 10 16 1 19 -58 22 -27 2 -55 7 -62 12 -7 7 -14 6 -19
-2 -5 -8 -3 -9 6 -4 9 5 11 4 6 -4 -6 -9 -11 -9 -24 1 -12 10 -14 10 -8 1 10
-18 -9 -16 -24 2 -15 18 -34 9 -25 -13 5 -13 2 -12 -15 3 -12 11 -20 13 -20 6
0 -7 -5 -9 -10 -6 -6 4 -8 12 -4 18 3 7 -2 3 -10 -7 -15 -18 -17 -19 -35 -2
-14 13 -21 14 -27 5 -4 -7 -3 -10 4 -5 6 3 13 2 16 -3 7 -10 -13 -9 -31 2 -7
4 -16 0 -22 -10 -9 -16 -11 -15 -12 7 -1 18 -3 20 -6 7 -5 -18 -6 -18 -24 -1
-14 13 -18 14 -14 3 4 -11 -4 -14 -35 -14 -22 0 -40 5 -41 10 0 6 -4 1 -9 -10
-6 -15 -9 -16 -9 -4 -1 9 -8 16 -16 16 -8 0 -11 -5 -8 -10 3 -5 0 -7 -8 -5 -8
3 -13 10 -12 15 1 5 -4 10 -12 10 -7 0 -11 -5 -9 -11 5 -12 -77 -13 -97 0 -8
4 -10 3 -5 -4 8 -14 -29 -11 -41 3 -5 4 -2 5 6 0 10 -6 12 -4 6 5 -6 10 -13 7
-27 -11 -11 -13 -16 -18 -12 -10 5 11 3 13 -9 8 -9 -3 -19 -1 -23 5 -5 7 -2 8
7 4 8 -4 6 -1 -3 7 -18 14 -25 33 -10 23 4 -2 8 9 7 25 0 16 -3 29 -6 29 -3 0
-6 7 -6 15 0 8 5 15 10 15 6 0 6 5 0 13 -5 6 -9 18 -9 26 1 18 56 27 56 9 1
-8 5 -7 14 4 7 10 16 15 19 11 11 -11 60 -13 94 -4 27 8 31 7 25 -7 -5 -15 -4
-15 12 -3 15 13 19 13 27 0 7 -11 9 -10 9 6 0 14 3 16 12 7 8 -8 16 -8 32 0
20 11 20 10 6 -7 -9 -12 -10 -16 -2 -11 7 4 26 11 42 16 24 7 28 6 22 -8 -5
-15 -4 -15 12 -3 15 13 19 13 27 0 7 -11 9 -11 9 4 0 12 4 15 12 11 18 -12 58
-11 58 1 0 5 4 5 8 -2 5 -8 13 -9 22 -3 8 5 21 5 29 0 25 -13 33 -13 42 2 7
10 9 9 9 -5 0 -17 1 -17 16 -3 17 18 39 12 27 -7 -3 -7 2 -4 13 5 14 12 24 14
37 7 9 -6 17 -7 17 -4 0 3 10 0 23 -6 20 -11 21 -11 8 5 -13 15 -12 16 13 7
25 -10 26 -9 26 20 0 21 4 28 13 23 9 -6 9 -4 1 7 -16 20 -16 82 -1 72 9 -5 9
-3 1 8 -7 8 -12 28 -12 44 0 17 5 36 12 44 9 12 8 13 -3 6 -11 -6 -13 -3 -9
12 3 11 1 28 -5 38 -6 12 -6 16 1 11 5 -3 12 1 16 9 3 8 1 17 -4 20 -6 4 -10
16 -10 29 0 18 -6 22 -35 23 -22 1 -33 -3 -28 -10 4 -6 1 -7 -8 -1 -7 4 -65
10 -127 12 -87 2 -112 0 -106 -9 5 -8 3 -9 -7 -3 -23 14 -141 15 -133 1 5 -8
3 -8 -7 1 -17 16 -63 16 -53 0 5 -7 3 -8 -7 -2 -22 14 -180 14 -172 0 3 -6 0
-6 -8 2 -7 6 -24 12 -37 12 -16 0 -21 -4 -16 -12 6 -10 5 -10 -7 -2 -20 16
-102 17 -93 1 5 -8 3 -8 -7 1 -7 6 -24 12 -37 12 -16 0 -21 -4 -16 -12 6 -10
5 -10 -7 -2 -20 16 -102 17 -93 1 5 -8 3 -8 -7 1 -7 6 -24 12 -37 12 -16 0
-21 -4 -16 -12 6 -10 5 -10 -7 -1 -8 6 -44 11 -80 11 l-67 -1 2 -28z"/>
<path d="M2623 3162 c-7 -13 -6 -23 6 -42 9 -14 11 -21 4 -17 -7 5 -13 4 -13
-2 0 -6 4 -11 8 -11 4 0 8 -9 8 -20 0 -11 -7 -20 -15 -20 -11 0 -10 -4 5 -16
10 -8 13 -13 7 -9 -7 3 -13 1 -13 -4 0 -6 6 -11 13 -12 6 0 3 -4 -8 -9 l-20
-9 20 0 c15 -1 17 -3 6 -10 -8 -5 -9 -11 -3 -15 13 -8 3 -46 -12 -47 -6 0 -2
-4 9 -9 11 -5 14 -9 6 -9 -11 -1 -11 -4 -1 -16 7 -8 9 -15 4 -15 -10 0 -11
-51 -1 -66 3 -6 0 -22 -8 -37 -9 -19 -10 -29 -3 -33 7 -5 8 -2 3 7 -5 8 -4 10
0 6 11 -9 16 -37 7 -37 -9 0 -8 -58 1 -66 3 -3 2 -16 -3 -29 -5 -14 -5 -26 3
-34 8 -8 6 -11 -8 -11 -18 0 -18 0 1 -16 10 -8 13 -13 7 -9 -7 3 -13 1 -13 -4
0 -6 6 -11 13 -12 6 0 3 -4 -8 -9 l-20 -9 20 0 c15 -1 17 -3 6 -10 -9 -6 -10
-11 -2 -15 6 -4 9 -11 6 -16 -3 -5 -7 -27 -9 -49 -3 -29 -1 -39 7 -34 7 4 5
-2 -3 -12 -9 -11 -10 -16 -2 -11 18 11 15 -5 -5 -21 -10 -8 -13 -12 -6 -9 6 4
14 2 18 -4 3 -5 -2 -10 -12 -11 -16 0 -16 -1 2 -9 11 -5 14 -9 6 -9 -11 -1
-11 -4 -1 -16 10 -12 10 -15 0 -15 -9 0 -9 -4 1 -17 10 -11 10 -14 2 -9 -16 9
-17 -6 -1 -22 8 -8 8 -12 1 -12 -13 0 -11 -60 2 -60 6 0 3 -5 -5 -10 -12 -8
-13 -13 -2 -30 8 -14 9 -20 1 -20 -8 0 -7 -6 2 -17 10 -11 10 -14 2 -9 -16 9
-16 1 -2 -26 8 -15 8 -19 0 -14 -6 4 -11 3 -11 -3 0 -5 6 -12 13 -14 9 -4 8
-6 -2 -6 -11 -1 -11 -4 -1 -16 9 -10 9 -15 1 -15 -6 0 -11 -5 -11 -11 0 -5 6
-7 13 -3 8 5 8 2 -2 -9 -8 -10 -9 -17 -3 -17 7 0 8 -10 2 -29 -5 -19 -4 -33 3
-40 7 -7 7 -11 1 -11 -11 0 -12 -35 -2 -46 4 -3 3 -17 -2 -30 -7 -17 -6 -24 3
-25 6 -1 149 -2 317 -3 168 0 310 -4 317 -9 6 -4 14 -3 18 3 3 5 11 10 16 10
6 0 7 -6 3 -12 -5 -9 -2 -9 9 1 9 7 17 10 17 6 0 -4 6 -2 14 4 8 7 17 8 20 3
7 -12 76 -2 76 12 0 6 5 4 10 -4 8 -12 11 -13 19 -1 7 11 9 11 14 0 4 -10 6
-9 6 4 1 9 6 17 12 17 5 0 7 -4 4 -10 -3 -5 -1 -10 4 -10 6 0 11 5 11 10 0 6
5 10 11 10 5 0 7 -6 3 -12 -4 -7 2 -5 13 5 16 14 22 15 26 5 4 -9 6 -7 6 4 1
11 6 15 15 12 8 -3 17 0 21 5 3 6 11 9 16 6 5 -4 9 -1 9 6 0 8 4 8 15 -1 13
-11 14 -10 9 5 -5 13 -4 16 4 11 7 -4 12 -2 12 5 0 7 3 9 6 6 4 -4 19 2 34 13
15 11 31 16 35 12 5 -4 5 -2 2 4 -4 6 5 16 18 22 14 7 25 16 25 22 0 6 5 8 10
5 6 -3 10 -2 10 3 0 14 36 52 49 52 7 0 9 4 6 10 -3 5 3 17 15 27 11 10 20 24
20 32 0 8 7 22 16 32 14 15 21 34 23 62 1 5 7 5 14 1 6 -4 9 -4 5 1 -4 4 -2
15 5 23 9 13 9 14 0 8 -7 -4 -13 -3 -13 3 0 5 8 15 18 20 10 6 12 11 4 11 -7
0 -10 5 -7 10 4 6 12 7 18 3 7 -4 6 0 -2 10 -8 11 -9 17 -3 17 6 0 9 7 6 15
-4 8 -1 22 5 29 9 11 9 15 -1 19 -10 4 -10 6 1 6 11 1 11 4 1 16 -10 12 -9 16
4 21 9 3 16 10 16 16 0 5 -4 6 -10 3 -5 -3 -10 -1 -10 4 0 6 4 11 9 11 8 0 8
18 -4 87 -2 13 1 26 7 29 7 5 8 2 3 -6 -5 -9 -4 -11 3 -6 17 10 15 26 -3 26
-8 0 -15 5 -15 11 0 5 4 8 8 5 4 -3 7 10 5 27 -2 18 -4 38 -5 45 -1 6 -6 12
-11 12 -5 0 -4 7 3 15 7 8 8 15 3 15 -5 0 -10 14 -11 32 -2 18 -8 36 -15 40
-9 6 -8 8 2 8 11 0 9 4 -5 15 -14 10 -15 14 -5 15 11 0 10 4 -5 16 -10 8 -14
13 -7 10 7 -4 9 1 6 14 -3 11 -10 20 -15 20 -5 0 -6 5 -3 10 3 6 2 10 -3 10
-4 0 -14 16 -22 35 -8 19 -18 35 -22 35 -5 0 -6 5 -3 10 3 6 -1 13 -9 16 -9 3
-16 14 -16 24 0 10 -9 22 -20 25 -11 3 -20 14 -20 22 0 9 -3 14 -6 10 -3 -3
-19 7 -34 23 -15 16 -31 26 -34 23 -3 -4 -6 1 -6 10 0 10 -5 14 -15 11 -8 -4
-15 -1 -15 5 0 6 -7 11 -15 11 -8 0 -15 4 -15 10 0 5 -3 9 -7 9 -21 -3 -34 2
-28 11 4 6 3 10 -2 9 -28 -5 -53 2 -47 14 5 9 4 9 -6 0 -11 -10 -17 -9 -32 4
-13 11 -18 12 -18 3 0 -10 -3 -10 -15 0 -8 7 -15 9 -15 4 0 -5 -4 -3 -9 5 -13
20 -216 27 -205 8 5 -9 4 -9 -7 1 -17 16 -63 16 -53 0 5 -7 3 -8 -7 -2 -22 14
-180 14 -172 0 3 -6 0 -6 -8 2 -17 16 -63 16 -53 0 5 -7 3 -8 -7 -2 -23 14
-282 16 -273 2 5 -7 3 -8 -7 -2 -26 16 -84 13 -96 -4z m17 -12 c0 -5 -5 -10
-11 -10 -5 0 -7 5 -4 10 3 6 8 10 11 10 2 0 4 -4 4 -10z m530 -353 c0 14 50
14 51 -1 0 -6 4 -2 9 9 5 11 9 15 9 8 1 -7 8 -10 18 -6 11 5 14 3 8 -6 -6 -10
-3 -11 13 -2 15 8 23 8 28 0 4 -8 9 -7 15 2 7 11 9 10 9 -3 0 -10 5 -18 11
-18 5 0 7 4 4 10 -3 6 1 7 9 4 9 -3 16 -10 16 -15 0 -5 11 -9 25 -9 13 0 29
-8 34 -17 6 -10 11 -15 11 -11 0 3 15 -8 33 -25 19 -18 32 -35 31 -38 -2 -4 3
-9 11 -13 8 -3 15 -15 15 -27 0 -12 8 -28 18 -36 16 -14 16 -14 -2 -8 -19 6
-19 5 -2 -14 13 -15 14 -20 4 -24 -9 -4 -8 -6 3 -6 16 -1 23 -31 7 -31 -5 0
-6 -5 -3 -10 4 -6 12 -7 18 -3 8 5 8 2 0 -9 -7 -8 -10 -18 -6 -21 3 -4 0 -7
-8 -7 -12 0 -11 -2 1 -11 12 -9 13 -12 1 -16 -11 -5 -11 -7 0 -14 11 -6 11
-11 2 -20 -9 -9 -9 -17 -1 -32 8 -16 7 -23 -8 -34 -18 -13 -30 -48 -13 -37 5
3 0 -11 -11 -30 -11 -20 -17 -36 -14 -36 2 0 -1 -6 -8 -14 -7 -8 -16 -12 -20
-9 -5 2 -8 -3 -8 -11 0 -9 -7 -16 -16 -16 -9 0 -14 -5 -12 -12 5 -14 -56 -48
-89 -50 -13 -1 -23 -7 -23 -13 0 -6 -3 -7 -8 0 -4 6 -13 11 -21 13 -11 2 -12
0 -4 -10 9 -10 -1 -13 -50 -13 -43 0 -66 5 -75 15 -11 13 -11 13 -7 -1 5 -13
0 -15 -24 -11 -17 2 -28 8 -25 13 3 5 0 9 -5 9 -6 0 -11 -6 -11 -14 0 -8 -5
-18 -10 -21 -6 -4 -9 -1 -8 7 2 7 -2 12 -9 11 -6 -1 -10 5 -8 15 1 9 -2 22 -7
29 -5 7 -5 14 1 17 6 4 8 27 6 51 -3 28 -1 45 6 45 5 0 7 5 4 10 -4 6 -12 7
-18 3 -9 -5 -9 -3 -1 8 15 20 26 51 15 44 -6 -3 -9 8 -9 25 1 16 6 30 12 30 6
0 4 4 -4 10 -8 5 -11 12 -7 16 4 4 1 14 -6 22 -9 12 -9 14 0 9 9 -6 11 2 7 29
-2 20 1 42 6 49 8 10 8 15 -1 21 -8 5 -9 3 -4 -6 6 -9 4 -11 -5 -5 -10 6 -9
11 5 22 11 7 14 13 8 13 -7 0 -11 13 -11 30 1 16 5 27 9 24 5 -3 6 2 3 10 -3
9 -11 13 -18 9 -8 -5 -8 -3 1 8 6 8 10 32 8 54 -2 23 1 43 8 47 8 5 5 8 -8 8
-15 0 -17 3 -7 9 8 4 13 11 13 15 -3 20 1 24 17 21 10 -2 25 1 33 6 9 6 18 3
27 -8 6 -9 12 -12 12 -6z"/>
<path d="M4075 3172 c-10 -10 -5 -22 10 -22 9 0 12 -6 8 -17 -4 -11 -3 -14 5
-9 7 4 12 2 12 -5 0 -6 8 -18 18 -26 11 -10 12 -12 2 -8 -8 4 -6 -1 5 -10 11
-9 20 -19 20 -24 0 -4 8 -15 18 -25 9 -10 15 -22 12 -27 -4 -5 1 -9 10 -9 9 0
13 -4 10 -10 -3 -5 -1 -10 5 -10 6 0 8 -4 5 -10 -3 -5 -2 -10 3 -10 5 0 22
-17 38 -37 19 -25 22 -33 9 -23 -11 8 -5 -2 13 -23 18 -21 29 -43 26 -49 -5
-7 -2 -8 5 -4 8 5 14 0 18 -14 3 -11 11 -19 18 -16 8 3 11 -2 8 -14 -3 -10 0
-21 6 -24 14 -9 -9 -46 -28 -46 -8 0 -11 -3 -8 -7 4 -3 -1 -12 -11 -20 -9 -8
-12 -12 -6 -9 6 3 11 -1 11 -8 0 -8 -6 -12 -13 -9 -7 2 -15 -5 -19 -16 -3 -12
-11 -21 -16 -21 -5 0 -8 -6 -7 -12 2 -7 -3 -12 -10 -10 -8 1 -11 -2 -8 -7 3
-5 -1 -12 -10 -15 -9 -4 -14 -9 -11 -13 10 -10 -13 -44 -25 -37 -7 5 -8 2 -4
-5 5 -7 0 -19 -10 -27 -11 -9 -13 -13 -4 -9 8 4 6 -1 -4 -9 -11 -9 -16 -16
-12 -16 4 0 -4 -11 -18 -23 -14 -13 -23 -27 -19 -30 3 -4 0 -7 -7 -7 -7 0 -10
-3 -7 -6 4 -4 -6 -18 -21 -32 -15 -13 -21 -21 -13 -17 9 5 8 -1 -4 -18 l-17
-26 64 0 c37 1 66 5 70 12 5 8 8 6 8 -6 0 -17 1 -17 16 -2 12 11 20 13 27 6
14 -14 67 -14 67 0 0 5 5 7 10 4 6 -4 7 -12 3 -18 -3 -7 2 -4 13 5 14 13 23
14 38 6 12 -7 17 -7 12 0 -3 5 1 13 10 16 8 3 12 10 9 16 -3 6 1 13 9 16 9 3
13 10 10 15 -3 5 0 9 6 9 6 0 8 4 5 10 -3 5 3 15 15 22 21 14 28 33 8 23 -7
-4 -2 2 11 13 13 10 21 24 17 30 -3 6 8 18 26 26 17 9 29 13 25 10 -4 -4 -2
-13 4 -21 6 -7 8 -13 3 -13 -4 0 5 -14 22 -32 16 -18 20 -26 9 -18 -19 14 -19
14 -2 -6 9 -11 17 -26 17 -33 0 -7 5 -9 10 -6 6 3 10 -3 10 -13 0 -11 10 -27
23 -36 12 -9 15 -14 7 -10 -13 7 -13 6 -1 -9 11 -14 16 -15 29 -5 10 8 13 9 9
2 -4 -7 0 -15 9 -18 8 -3 13 -2 10 3 -3 5 1 11 9 15 8 3 17 1 20 -4 9 -14 65
-12 65 2 0 6 7 3 16 -8 8 -10 13 -14 10 -8 -7 14 21 27 29 15 10 -17 55 -19
65 -2 5 9 10 11 10 6 0 -15 47 -17 56 -3 4 6 3 8 -4 4 -6 -3 -13 -2 -17 4 -3
5 0 10 7 10 7 1 2 10 -12 22 -14 11 -24 25 -23 29 2 5 -2 9 -7 9 -6 0 -10 7
-10 15 0 8 -4 15 -9 15 -5 0 -14 13 -21 30 -7 16 -16 27 -21 24 -5 -3 -9 3 -9
13 0 10 -7 26 -14 36 -15 19 -31 24 -20 5 4 -7 3 -8 -5 -4 -8 6 -9 12 -2 20 8
9 4 16 -14 26 -19 10 -22 16 -13 22 10 6 10 8 1 8 -7 0 -13 5 -13 10 0 6 -8
19 -17 29 -33 37 -43 50 -43 61 0 5 -5 10 -11 10 -5 0 -7 5 -3 12 5 8 2 9 -9
5 -10 -3 -17 -2 -17 3 0 6 6 10 13 10 8 0 9 3 1 8 -17 11 -13 41 4 34 10 -3
13 -1 8 6 -4 7 -3 12 2 12 5 0 12 9 15 21 4 13 10 18 18 13 8 -4 10 -3 5 4 -4
6 2 19 14 29 11 10 20 22 20 28 0 6 9 21 20 33 12 12 17 22 13 22 -4 0 2 7 13
16 10 8 12 13 4 9 -8 -4 -4 3 10 14 14 11 21 21 15 21 -5 0 -2 5 8 11 9 5 17
17 17 24 0 8 5 15 10 15 6 0 10 7 10 15 0 8 5 15 10 15 6 0 10 5 10 11 0 7 10
20 22 30 11 11 17 19 13 19 -5 0 0 7 11 15 10 8 17 15 14 16 -14 5 -339 5
-338 0 3 -14 -15 -40 -23 -35 -5 3 -6 -2 -3 -10 3 -9 1 -16 -6 -16 -6 0 -8 -4
-5 -10 3 -5 1 -10 -5 -10 -7 0 -10 -7 -7 -14 4 -10 1 -13 -7 -10 -9 3 -13 -3
-12 -18 1 -15 -4 -22 -13 -20 -8 2 -11 -3 -8 -13 4 -8 2 -15 -4 -15 -6 0 -7
-5 -3 -12 5 -7 2 -9 -9 -5 -9 3 -18 1 -21 -6 -2 -7 -5 -2 -5 11 -1 14 -7 22
-18 22 -15 0 -16 2 -3 10 13 9 7 14 -12 11 -4 0 -5 6 -2 14 4 8 1 15 -5 15 -6
0 -10 3 -10 8 3 19 -2 33 -11 27 -5 -3 -10 1 -10 9 0 25 -2 30 -18 42 -8 6
-12 15 -9 21 6 10 -317 15 -328 5z"/>
</g>
</svg>
