<?xml version="1.0" encoding="utf-8"?>
<!-- Generator: Adobe Illustrator 25.0.0, SVG Export Plug-In . SVG Version: 6.00 Build 0)  -->
<svg version="1.1" id="Capa_1" xmlns="http://www.w3.org/2000/svg" xmlns:xlink="http://www.w3.org/1999/xlink" x="0px" y="0px"
	 viewBox="0 0 512 512" style="enable-background:new 0 0 512 512;" xml:space="preserve">
<style type="text/css">
	.st0{fill:#FFFFFF;}
</style>
<g>
	<g>
		<path class="st0" d="M448.7,128.2l-10.6,10.6c-8.7,8.7-20.2,13.4-32.4,13.4s-23.8-4.8-32.4-13.4c-8.7-8.7-13.4-20.2-13.4-32.4
			s4.8-23.8,13.4-32.4l10.6-10.6L320.5,0L0,320.5l63.3,63.3l10.6-10.6c8.7-8.7,20.2-13.4,32.4-13.4s23.8,4.8,32.4,13.4
			c8.7,8.7,13.4,20.2,13.4,32.4s-4.8,23.8-13.4,32.4l-10.6,10.6l63.3,63.3L512,191.5L448.7,128.2z M169.6,447.6
			c8.2-12.3,12.7-26.8,12.7-42c0-20.3-7.9-39.3-22.2-53.7c-14.3-14.3-33.4-22.2-53.7-22.2c-15.2,0-29.7,4.4-42,12.7l-21.9-21.9
			l278-278l21.9,21.9c-8.2,12.3-12.7,26.8-12.7,42c0,20.3,7.9,39.3,22.2,53.7c14.3,14.3,33.4,22.2,53.7,22.2
			c15.2,0,29.7-4.4,42-12.7l21.9,21.9l-278,278L169.6,447.6z"/>
	</g>
</g>
<g>
	<g>
		
			<rect x="284" y="197.9" transform="matrix(0.7071 -0.7071 0.7071 0.7071 -63.0406 273.8113)" class="st0" width="30" height="30.1"/>
	</g>
</g>
<g>
	<g>
		
			<rect x="241.4" y="155.3" transform="matrix(0.7071 -0.7071 0.7071 0.7071 -45.3836 231.2101)" class="st0" width="30" height="30.1"/>
	</g>
</g>
<g>
	<g>
		
			<rect x="326.6" y="240.5" transform="matrix(0.7071 -0.7071 0.7071 0.7071 -80.6853 316.4155)" class="st0" width="30" height="30.1"/>
	</g>
</g>
</svg>
